Coordinates
version=1
nRows=5
nColumns=42
inDegrees=yes

Units are S.I. units (second, meters, Newtons, ...)
If the header above contains a line with 'inDegrees', this indicates whether rotational values are in degrees (yes) or radians (no).

endheader
time	pelvis_tilt	pelvis_list	pelvis_rotation	pelvis_tx	pelvis_ty	pelvis_tz	hip_flexion_r	hip_adduction_r	hip_rotation_r	knee_angle_r	knee_adduction_r	knee_angle_r_beta	ankle_angle_r	subtalar_angle_r	mtp_angle_r	hip_flexion_l	hip_adduction_l	hip_rotation_l	knee_angle_l	knee_adduction_l	knee_angle_l_beta	ankle_angle_l	subtalar_angle_l	mtp_angle_l	lumbar_extension	lumbar_bending	lumbar_rotation	arm_flex_r	arm_add_r	arm_rot_r	elbow_flex_r	pro_sup_r	wrist_flex_r	wrist_dev_r	arm_flex_l	arm_add_l	arm_rot_l	elbow_flex_l	pro_sup_l	wrist_flex_l	wrist_dev_l
      1.98000000	     13.02780180	      0.68093392	      8.53576238	      0.29398921	      0.88076053	      0.15553311	     10.97558516	      1.00855004	     -8.37559573	     50.81604701	     -3.37967392	      0.88690733	     17.73885833	    -15.13926442	     -7.51657070	     -0.45975436	      6.12015482	     -7.85924614	     29.63001634	     -8.76303815	      0.51714134	     26.61536057	      4.57269404	     -7.51657070	    -41.81698479	      4.50590268	     -6.38368507	     14.00502543	     -5.43150886	     -2.63543144	     33.61688373	     90.00000001	      0.00000000	      0.00000000	     23.95292055	    -10.65386704	     -3.84297600	     30.55512932	     90.00000001	      0.00000000	      0.00000000
      1.99000000	     12.46274049	      1.01754743	      8.46584382	      0.30165875	      0.87938035	      0.15543532	     12.46852034	      0.41470626	     -8.31609540	     48.52443932	     -3.23808688	      0.84691123	     17.48883994	    -14.43467423	     -7.51632454	     -0.44417423	      6.51725213	     -8.06888150	     29.62764474	     -8.74229298	      0.51709995	     26.75816801	      4.71574972	     -7.51632454	    -41.35057758	      4.11513551	     -6.52564040	     13.43528784	     -5.43404399	     -2.75271876	     33.46663166	     90.00000001	      0.00000000	      0.00000000	     24.53342431	    -10.70677407	     -3.59175738	     31.06207021	     90.00000001	      0.00000000	      0.00000000
      2.00000000	     12.93149201	      0.66627270	      8.65331090	      0.31017606	      0.88038761	      0.15560359	     11.76275397	      1.20973522	     -7.25957430	     44.12699671	     -2.58177482	      0.77016138	     16.73491711	    -15.11394414	     -7.51543716	     -1.67428070	      5.75325907	     -8.71706030	     29.34629839	     -8.91487301	      0.51218953	     27.82922415	      6.42956750	     -7.51543716	    -41.89041266	      4.63900884	     -6.32415935	     13.25926565	     -5.16088924	     -4.36247809	     32.74162918	     90.00000001	      0.00000000	      0.00000000	     24.94756656	    -11.15614188	     -1.29933879	     31.80091406	     90.00000001	      0.00000000	      0.00000000
      2.01000000	     12.39695900	      0.84816824	      8.74690371	      0.31792613	      0.87886164	      0.15531715	     12.85573265	      0.80948768	     -7.15437861	     41.16028229	     -2.28340258	      0.71838245	     16.75707873	    -14.54563238	     -7.51510336	     -1.58851281	      6.08478506	     -8.94586379	     29.47527609	     -9.30715075	      0.51444062	     28.37709870	      6.59203201	     -7.51510336	    -41.42347429	      4.51199181	     -6.53359147	     12.83801567	     -5.14338568	     -4.58556078	     32.32945159	     90.00000001	      0.00000000	      0.00000000	     25.47006119	    -11.27877089	     -0.87528580	     32.18262578	     90.00000001	      0.00000000	      0.00000000
      2.02000000	     12.37858652	      0.73300488	      8.91798349	      0.32609198	      0.87849599	      0.15539806	     12.86096259	      0.96998402	     -6.86269877	     37.22503346	     -1.85452126	      0.64969940	     16.57922191	    -14.34091322	     -7.51461979	     -2.10264949	      5.62821105	     -9.39752470	     29.59613563	     -9.21288206	      0.51655001	     29.18510875	      7.36850325	     -7.51461979	    -41.48708628	      4.73355772	     -6.48061222	     12.55730548	     -5.02232180	     -5.32129642	     31.73185405	     90.00000001	      0.00000000	      0.00000000	     25.98054733	    -11.41672093	      0.14077303	     32.71866617	     90.00000001	      0.00000000	      0.00000000
